<svg xmlns="http://www.w3.org/2000/svg" xmlns:xlink="http://www.w3.org/1999/xlink" width="500" zoomAndPan="magnify" viewBox="0 0 375 374.999991" height="500" preserveAspectRatio="xMidYMid meet" version="1.0"><defs><g/><clipPath id="b8d1624ec3"><path d="M 43.523438 159.683594 L 99.773438 159.683594 L 99.773438 215 L 43.523438 215 Z M 43.523438 159.683594 " clip-rule="nonzero"/></clipPath><clipPath id="2d1e223d37"><path d="M 69.292969 214.800781 C 67.539062 214.601562 65.46875 214.199219 65.363281 214.03125 C 65.300781 213.933594 65.589844 213.785156 66 213.703125 C 66.984375 213.515625 67.003906 213.515625 68.511719 213.699219 C 69.367188 213.800781 69.863281 213.769531 69.964844 213.601562 C 70.078125 213.425781 70.394531 213.457031 71.042969 213.714844 C 71.863281 214.042969 72.507812 214.058594 73.574219 213.773438 C 73.777344 213.722656 73.890625 213.8125 73.851562 214 C 73.804688 214.21875 73.910156 214.261719 74.199219 214.140625 C 74.429688 214.042969 74.925781 213.984375 75.308594 214.003906 L 76.003906 214.042969 L 74.886719 213.261719 L 75.417969 213.066406 C 75.753906 212.941406 76.0625 212.96875 76.269531 213.136719 C 76.683594 213.480469 79.527344 213.234375 80.671875 212.761719 C 81.125 212.574219 81.820312 212.414062 82.21875 212.410156 C 82.617188 212.40625 83.203125 212.253906 83.519531 212.074219 C 84.164062 211.707031 84.675781 211.632812 84.675781 211.90625 C 84.675781 212.113281 82.410156 213.117188 80.398438 213.800781 C 77.664062 214.730469 72.667969 215.179688 69.292969 214.800781 Z M 75.472656 211.109375 C 74.640625 210.773438 74.175781 209.953125 74.554688 209.488281 C 74.71875 209.285156 74.691406 209.199219 74.46875 209.195312 C 74.246094 209.195312 74.230469 209.144531 74.417969 209.023438 C 74.566406 208.929688 74.753906 208.335938 74.839844 207.707031 C 74.925781 207.074219 75.132812 206.089844 75.300781 205.519531 C 75.464844 204.953125 75.601562 204.28125 75.597656 204.027344 C 75.59375 203.539062 75.796875 202.007812 76.035156 200.734375 C 76.222656 199.710938 75.765625 198.921875 74.667969 198.363281 C 74.179688 198.117188 73.726562 197.738281 73.65625 197.523438 C 73.3125 196.449219 72.511719 194.847656 71.875 193.953125 C 71.253906 193.078125 71.679688 191.207031 72.707031 190.296875 C 73.328125 189.746094 73.433594 189.503906 73.371094 188.789062 C 73.328125 188.316406 73.210938 187.882812 73.109375 187.820312 C 73.007812 187.753906 72.914062 187.601562 72.902344 187.472656 C 72.890625 187.347656 72.75 187.242188 72.589844 187.242188 C 72.429688 187.242188 72.324219 187.371094 72.355469 187.523438 C 72.429688 187.890625 71.042969 187.636719 70.609375 187.203125 C 70.441406 187.035156 70.207031 186.898438 70.085938 186.898438 C 69.96875 186.898438 69.871094 186.761719 69.871094 186.59375 C 69.871094 186.101562 68.894531 185.351562 68.023438 185.175781 C 67.578125 185.085938 66.984375 184.800781 66.707031 184.546875 C 66.367188 184.238281 65.8125 184.0625 65.023438 184.023438 C 63.820312 183.957031 62.582031 183.371094 62.824219 182.980469 C 62.898438 182.859375 62.648438 182.761719 62.265625 182.761719 C 61.398438 182.761719 61.132812 182.375 61.695312 181.9375 C 61.929688 181.753906 62.011719 181.632812 61.871094 181.664062 C 61.660156 181.714844 60.773438 180.820312 60.109375 179.886719 C 60.019531 179.761719 59.628906 179.296875 59.242188 178.851562 L 58.539062 178.046875 L 58.902344 178.792969 C 59.101562 179.207031 59.359375 179.542969 59.472656 179.542969 C 59.585938 179.542969 59.625 179.6875 59.554688 179.863281 C 59.488281 180.039062 59.542969 180.253906 59.679688 180.335938 C 59.816406 180.421875 59.925781 180.652344 59.925781 180.855469 C 59.925781 181.175781 59.867188 181.167969 59.464844 180.804688 C 59.210938 180.578125 59 180.25 59 180.074219 C 59 179.898438 58.839844 179.695312 58.648438 179.621094 C 58.429688 179.539062 58.34375 179.328125 58.425781 179.074219 C 58.496094 178.847656 58.449219 178.59375 58.316406 178.511719 C 58.183594 178.433594 58.074219 178.179688 58.074219 177.953125 C 58.074219 177.726562 57.824219 177.269531 57.519531 176.941406 C 56.667969 176.03125 56.433594 174.558594 56.941406 173.3125 C 57.410156 172.171875 57.5 171.265625 57.144531 171.265625 C 57.011719 171.265625 56.972656 171.027344 57.050781 170.714844 C 57.125 170.414062 57.074219 170.097656 56.9375 170.011719 C 56.800781 169.925781 56.6875 170.019531 56.6875 170.21875 C 56.6875 170.414062 56.578125 170.574219 56.449219 170.574219 C 56.316406 170.574219 56.226562 170.34375 56.253906 170.058594 C 56.335938 169.078125 56.222656 168.738281 55.8125 168.738281 C 55.285156 168.738281 53.65625 169.554688 53.414062 169.941406 C 53.316406 170.101562 53.152344 170.230469 53.054688 170.234375 C 52.953125 170.234375 52.390625 170.566406 51.800781 170.972656 C 51.214844 171.375 50.671875 171.648438 50.597656 171.570312 C 50.523438 171.496094 50.792969 171.214844 51.203125 170.941406 C 51.609375 170.667969 51.976562 170.242188 52.023438 169.992188 C 52.066406 169.746094 52.480469 169.207031 52.949219 168.792969 C 53.414062 168.382812 53.601562 168.117188 53.359375 168.199219 C 52.695312 168.429688 53.011719 167.761719 53.730469 167.414062 C 54.058594 167.253906 54.386719 166.894531 54.464844 166.609375 C 54.644531 165.925781 56.242188 164.832031 57.070312 164.820312 C 57.433594 164.816406 58.351562 164.679688 59.117188 164.519531 C 59.878906 164.359375 60.886719 164.25 61.355469 164.28125 C 62.054688 164.332031 62.203125 164.265625 62.175781 163.921875 C 62.152344 163.582031 62.066406 163.550781 61.738281 163.753906 C 61.515625 163.894531 61.261719 163.933594 61.175781 163.847656 C 60.953125 163.628906 61.527344 162.988281 61.945312 162.988281 C 62.148438 162.988281 62.238281 162.855469 62.164062 162.664062 C 62.078125 162.449219 62.328125 162.210938 62.890625 161.964844 C 63.359375 161.757812 63.535156 161.636719 63.28125 161.695312 C 62.667969 161.832031 61.300781 162.308594 60.796875 162.558594 C 60.574219 162.667969 60.183594 162.757812 59.929688 162.757812 C 59.671875 162.757812 59.464844 162.851562 59.464844 162.960938 C 59.464844 163.160156 57.816406 163.820312 56.6875 164.070312 C 56.1875 164.179688 56.21875 164.121094 56.917969 163.644531 C 59.421875 161.933594 61.648438 160.992188 65.082031 160.191406 C 66.839844 159.777344 67.9375 159.691406 71.375 159.683594 C 75.523438 159.679688 78.636719 160.046875 77.953125 160.46875 C 77.785156 160.574219 77.554688 160.605469 77.449219 160.539062 C 77.34375 160.476562 76.175781 160.390625 74.855469 160.351562 C 72.835938 160.292969 72.472656 160.335938 72.578125 160.613281 C 72.648438 160.796875 72.839844 160.898438 72.996094 160.835938 C 73.394531 160.683594 75.261719 161.652344 76.472656 162.636719 C 77.019531 163.082031 77.554688 163.449219 77.664062 163.449219 C 77.769531 163.449219 77.992188 163.664062 78.15625 163.925781 C 78.421875 164.34375 78.402344 164.417969 78.003906 164.523438 C 77.410156 164.675781 77.246094 165.613281 77.628906 166.6875 C 77.796875 167.160156 77.882812 167.59375 77.820312 167.65625 C 77.609375 167.867188 76.242188 167.039062 75.351562 166.164062 C 74.859375 165.679688 74.347656 165.355469 74.210938 165.4375 C 74.074219 165.519531 74.03125 165.480469 74.113281 165.351562 C 74.195312 165.21875 74.101562 164.976562 73.90625 164.816406 C 73.710938 164.65625 73.605469 164.386719 73.671875 164.214844 C 73.738281 164.042969 73.636719 163.910156 73.441406 163.910156 C 73.253906 163.910156 73.035156 163.753906 72.964844 163.5625 C 72.890625 163.375 72.71875 163.21875 72.582031 163.21875 C 72.449219 163.21875 72.167969 163.066406 71.960938 162.882812 C 71.683594 162.632812 71.40625 162.597656 70.902344 162.746094 C 70.527344 162.859375 70.359375 162.957031 70.527344 162.96875 C 71.023438 163 72.679688 164.804688 72.609375 165.234375 C 72.574219 165.453125 72.613281 165.742188 72.695312 165.875 C 72.78125 166.007812 72.753906 166.265625 72.640625 166.449219 C 72.460938 166.730469 72.28125 166.703125 71.441406 166.265625 C 70.894531 165.980469 70.273438 165.746094 70.058594 165.746094 C 69.535156 165.75 69.292969 165.320312 69.722656 165.152344 C 69.914062 165.082031 70.128906 164.867188 70.199219 164.679688 C 70.300781 164.421875 70.21875 164.375 69.871094 164.484375 C 69.53125 164.589844 69.410156 164.523438 69.410156 164.230469 C 69.410156 164.011719 69.339844 163.898438 69.257812 163.984375 C 69.175781 164.066406 68.992188 164.039062 68.851562 163.925781 C 68.679688 163.78125 68.601562 163.964844 68.601562 164.519531 C 68.605469 165.046875 68.746094 165.402344 69.011719 165.550781 C 69.238281 165.675781 69.371094 165.855469 69.3125 165.949219 C 69.25 166.046875 69.484375 166.085938 69.828125 166.035156 C 70.246094 165.972656 70.789062 166.171875 71.492188 166.644531 C 72.292969 167.183594 72.550781 167.265625 72.605469 167.003906 C 72.722656 166.492188 72.9375 166.585938 73.921875 167.589844 C 74.421875 168.097656 74.929688 168.480469 75.054688 168.4375 C 75.316406 168.351562 75.917969 168.910156 76.476562 169.757812 C 76.867188 170.347656 77.429688 170.597656 77.15625 170.058594 C 77.074219 169.902344 77.222656 170.015625 77.488281 170.3125 C 77.75 170.613281 77.964844 171.027344 77.964844 171.234375 C 77.960938 171.5625 77.929688 171.566406 77.738281 171.265625 C 77.539062 170.960938 77.511719 170.960938 77.492188 171.265625 C 77.476562 171.503906 77.433594 171.519531 77.351562 171.324219 C 77.164062 170.863281 76.164062 170.964844 76.199219 171.4375 C 76.222656 171.691406 76.042969 171.867188 75.710938 171.914062 C 75.425781 171.953125 75.191406 172.097656 75.191406 172.230469 C 75.191406 172.382812 74.84375 172.429688 74.265625 172.351562 C 73.511719 172.25 73.339844 172.296875 73.335938 172.609375 C 73.332031 172.820312 73.128906 173.25 72.878906 173.566406 C 72.628906 173.878906 72.425781 174.28125 72.421875 174.453125 C 72.417969 174.722656 72.355469 174.722656 72.015625 174.453125 C 71.644531 174.164062 71.644531 174.1875 72.027344 174.777344 C 72.476562 175.480469 72.398438 175.714844 71.445312 176.511719 C 70.792969 177.058594 70.578125 178 71.042969 178.285156 C 71.382812 178.496094 71.757812 179.53125 71.589844 179.800781 C 71.386719 180.125 70.78125 179.554688 70.425781 178.710938 C 70.207031 178.191406 69.921875 177.953125 69.390625 177.847656 C 68.253906 177.621094 67.789062 177.675781 67.789062 178.027344 C 67.789062 178.234375 67.628906 178.308594 67.335938 178.230469 C 66.8125 178.09375 65.40625 178.890625 64.898438 179.613281 C 64.453125 180.246094 64.460938 181.003906 64.917969 181.960938 C 65.34375 182.851562 65.6875 183.03125 66.640625 182.839844 C 67.117188 182.746094 67.378906 182.53125 67.472656 182.15625 C 67.546875 181.855469 67.726562 181.601562 67.875 181.59375 C 68.019531 181.585938 68.320312 181.542969 68.542969 181.5 C 69.144531 181.382812 69.242188 181.742188 68.824219 182.546875 C 68.617188 182.941406 68.507812 183.320312 68.582031 183.394531 C 68.652344 183.464844 68.59375 183.667969 68.445312 183.839844 C 68.226562 184.105469 68.332031 184.144531 69.054688 184.0625 C 70.484375 183.90625 70.769531 184.070312 70.757812 185.046875 C 70.734375 186.699219 71.273438 187.386719 72.203125 186.890625 C 72.507812 186.726562 72.789062 186.726562 73.09375 186.890625 C 73.691406 187.207031 73.71875 187.203125 74.222656 186.664062 C 74.464844 186.40625 74.859375 186.15625 75.101562 186.109375 C 75.339844 186.058594 75.738281 185.941406 75.980469 185.84375 C 76.292969 185.722656 76.375 185.75 76.257812 185.941406 C 76.164062 186.089844 76.199219 186.210938 76.335938 186.210938 C 76.46875 186.210938 76.582031 186.113281 76.582031 185.992188 C 76.582031 185.875 76.859375 185.921875 77.199219 186.097656 C 77.539062 186.273438 77.921875 186.351562 78.046875 186.277344 C 78.167969 186.199219 78.203125 186.246094 78.121094 186.378906 C 78.039062 186.507812 78.207031 186.679688 78.492188 186.753906 C 79.21875 186.949219 79.402344 186.933594 79.25 186.683594 C 79.175781 186.566406 79.238281 186.394531 79.386719 186.304688 C 79.558594 186.199219 79.597656 186.238281 79.492188 186.402344 C 79.339844 186.652344 79.664062 186.761719 80.453125 186.730469 C 80.613281 186.726562 80.746094 186.890625 80.746094 187.097656 C 80.753906 187.625 82.332031 188.863281 83.21875 189.035156 C 84.113281 189.210938 84.90625 189.847656 84.90625 190.386719 C 84.90625 190.601562 85.019531 190.847656 85.152344 190.933594 C 85.316406 191.03125 85.257812 191.253906 84.984375 191.578125 C 84.757812 191.847656 84.71875 191.945312 84.898438 191.789062 C 85.164062 191.554688 85.503906 191.652344 86.695312 192.304688 C 87.5 192.746094 88.351562 193.105469 88.582031 193.105469 C 88.808594 193.105469 89.179688 193.304688 89.402344 193.550781 C 89.625 193.796875 89.953125 193.9375 90.132812 193.871094 C 90.367188 193.78125 90.457031 193.941406 90.457031 194.441406 C 90.457031 194.933594 90.15625 195.492188 89.429688 196.335938 C 88.863281 196.996094 88.328125 197.859375 88.242188 198.253906 C 88.007812 199.339844 86.96875 200.652344 86.121094 200.9375 C 85.707031 201.074219 85.371094 201.332031 85.371094 201.511719 C 85.371094 201.6875 85.082031 202.015625 84.734375 202.238281 C 84.382812 202.460938 83.910156 202.875 83.679688 203.15625 C 82.542969 204.554688 81.308594 205.535156 80.792969 205.445312 C 80.390625 205.375 80.277344 205.449219 80.328125 205.746094 C 80.402344 206.167969 79.902344 206.902344 79.542969 206.902344 C 79.421875 206.902344 78.757812 207.386719 78.066406 207.980469 C 77.234375 208.695312 76.902344 209.113281 77.089844 209.226562 C 77.28125 209.347656 77.195312 209.539062 76.800781 209.875 C 76.269531 210.320312 76.257812 210.367188 76.636719 210.660156 C 76.859375 210.835938 77.042969 211.027344 77.042969 211.09375 C 77.042969 211.386719 76.167969 211.394531 75.472656 211.109375 Z M 74.542969 171.566406 C 74.375 171.5 74.175781 171.511719 74.097656 171.585938 C 74.023438 171.664062 74.160156 171.71875 74.402344 171.707031 C 74.671875 171.695312 74.726562 171.640625 74.542969 171.566406 Z M 76.109375 170.527344 C 76.113281 170.433594 75.960938 170.421875 75.769531 170.492188 C 75.566406 170.570312 75.421875 170.496094 75.421875 170.3125 C 75.417969 170.058594 75.378906 170.0625 75.210938 170.324219 C 75.085938 170.519531 75.105469 170.867188 75.257812 171.199219 L 75.507812 171.75 L 75.804688 171.21875 C 75.96875 170.929688 76.105469 170.617188 76.109375 170.527344 Z M 68.714844 171.171875 C 68.714844 171.125 68.476562 170.933594 68.1875 170.746094 C 67.710938 170.433594 67.609375 170.441406 67.179688 170.785156 C 66.714844 171.15625 66.730469 171.167969 67.710938 171.210938 C 68.261719 171.234375 68.714844 171.21875 68.714844 171.171875 Z M 68.160156 169.988281 C 67.738281 169.683594 67.738281 169.660156 68.136719 169.507812 C 68.367188 169.421875 68.945312 169.453125 69.421875 169.582031 C 70.160156 169.777344 70.269531 169.757812 70.15625 169.464844 C 70.070312 169.242188 70.121094 169.179688 70.292969 169.285156 C 70.441406 169.375 70.746094 169.34375 70.96875 169.214844 C 71.339844 169.003906 71.332031 168.980469 70.882812 168.972656 C 70.507812 168.96875 70.394531 168.824219 70.394531 168.351562 C 70.394531 168.015625 70.199219 167.597656 69.960938 167.421875 C 69.71875 167.25 69.550781 167.058594 69.582031 167.003906 C 69.742188 166.710938 69.601562 166.4375 69.292969 166.4375 C 69.101562 166.4375 68.945312 166.324219 68.945312 166.1875 C 68.945312 166.050781 68.816406 165.984375 68.65625 166.042969 C 68.5 166.097656 68.183594 166.050781 67.957031 165.9375 C 67.640625 165.773438 67.414062 165.882812 66.953125 166.425781 C 66.628906 166.8125 66.277344 167.078125 66.175781 167.015625 C 66.074219 166.953125 65.929688 167.054688 65.855469 167.242188 C 65.785156 167.429688 65.800781 167.558594 65.890625 167.53125 C 65.980469 167.503906 66.347656 167.773438 66.703125 168.128906 C 67.105469 168.535156 67.488281 168.726562 67.71875 168.636719 C 68.195312 168.457031 68.992188 168.707031 68.820312 168.984375 C 68.75 169.101562 68.53125 169.195312 68.339844 169.195312 C 68.136719 169.195312 68.0625 169.085938 68.160156 168.929688 C 68.261719 168.765625 68.222656 168.726562 68.054688 168.832031 C 67.90625 168.921875 67.84375 169.09375 67.917969 169.210938 C 67.988281 169.328125 67.9375 169.425781 67.804688 169.425781 C 67.667969 169.425781 67.558594 169.324219 67.558594 169.195312 C 67.558594 168.792969 66.691406 168.949219 66.582031 169.375 C 66.453125 169.859375 66.992188 170.46875 67.21875 170.101562 C 67.324219 169.9375 67.457031 169.9375 67.660156 170.101562 C 67.820312 170.234375 68.015625 170.273438 68.101562 170.191406 C 68.183594 170.109375 68.253906 170.175781 68.253906 170.347656 C 68.253906 170.515625 68.332031 170.574219 68.425781 170.480469 C 68.523438 170.386719 68.402344 170.164062 68.160156 169.988281 Z M 69.871094 168.75 C 69.871094 168.632812 69.976562 168.46875 70.101562 168.394531 C 70.230469 168.3125 70.269531 168.40625 70.191406 168.609375 C 70.039062 169.007812 69.871094 169.082031 69.871094 168.75 Z M 66.96875 168.167969 C 66.71875 167.984375 66.640625 167.828125 66.789062 167.824219 C 67.226562 167.8125 67.789062 168.082031 67.789062 168.300781 C 67.789062 168.601562 67.476562 168.550781 66.96875 168.167969 Z M 74.730469 170.410156 C 74.730469 170.382812 74.53125 170.257812 74.292969 170.128906 C 73.980469 169.960938 73.785156 169.976562 73.617188 170.179688 C 73.441406 170.390625 73.546875 170.460938 74.054688 170.460938 C 74.425781 170.460938 74.730469 170.4375 74.730469 170.410156 Z M 71.261719 169.886719 C 71.261719 169.757812 71.097656 169.65625 70.898438 169.65625 C 70.703125 169.65625 70.601562 169.757812 70.683594 169.886719 C 70.761719 170.011719 70.921875 170.117188 71.042969 170.117188 C 71.164062 170.117188 71.261719 170.011719 71.261719 169.886719 Z M 72.070312 169.886719 C 71.992188 169.757812 71.882812 169.65625 71.824219 169.65625 C 71.769531 169.65625 71.722656 169.757812 71.722656 169.886719 C 71.722656 170.011719 71.832031 170.117188 71.96875 170.117188 C 72.101562 170.117188 72.148438 170.011719 72.070312 169.886719 Z M 64.550781 168.730469 C 64.257812 168.535156 64.304688 168.414062 64.839844 167.9375 C 65.191406 167.632812 65.476562 167.25 65.476562 167.09375 C 65.476562 166.9375 65.328125 167.011719 65.148438 167.253906 C 64.96875 167.5 64.742188 167.625 64.648438 167.527344 C 64.554688 167.433594 64.597656 167.355469 64.746094 167.355469 C 64.894531 167.355469 65.015625 167.203125 65.015625 167.011719 C 65.015625 166.566406 64.578125 166.566406 64.40625 167.011719 C 64.332031 167.199219 64.175781 167.296875 64.0625 167.226562 C 63.945312 167.152344 63.910156 167 63.984375 166.882812 C 64.058594 166.765625 64.011719 166.667969 63.886719 166.667969 C 63.757812 166.667969 63.589844 166.773438 63.507812 166.902344 C 63.429688 167.03125 63.253906 167.070312 63.125 166.988281 C 62.96875 166.890625 62.996094 166.769531 63.199219 166.640625 C 63.453125 166.480469 63.445312 166.445312 63.164062 166.449219 C 62.726562 166.457031 61.554688 167.109375 61.964844 167.121094 C 62.128906 167.125 62.207031 167.222656 62.136719 167.335938 C 62.066406 167.449219 62.242188 167.496094 62.527344 167.4375 L 63.046875 167.328125 L 61.984375 167.960938 L 62.625 168.253906 C 63.089844 168.460938 63.292969 168.472656 63.355469 168.285156 C 63.417969 168.097656 63.535156 168.105469 63.777344 168.304688 C 64.046875 168.527344 64.054688 168.617188 63.8125 168.769531 C 63.617188 168.894531 63.753906 168.960938 64.207031 168.960938 C 64.746094 168.960938 64.824219 168.910156 64.550781 168.730469 Z M 63.675781 167.90625 C 63.34375 167.550781 63.570312 167.484375 64.054688 167.792969 C 64.230469 167.902344 64.28125 168.042969 64.171875 168.109375 C 64.0625 168.175781 63.839844 168.085938 63.675781 167.90625 Z M 72.753906 167.851562 C 72.625 167.714844 72.183594 168.0625 72.183594 168.300781 C 72.183594 168.421875 72.332031 168.390625 72.507812 168.226562 C 72.6875 168.066406 72.796875 167.894531 72.753906 167.851562 Z M 66.171875 168.1875 C 66.171875 168.136719 66.011719 168.035156 65.8125 167.960938 C 65.605469 167.878906 65.515625 167.917969 65.59375 168.050781 C 65.730469 168.269531 66.171875 168.371094 66.171875 168.1875 Z M 62.652344 165.855469 C 62.851562 165.679688 62.738281 165.621094 62.238281 165.632812 C 61.859375 165.640625 61.363281 165.847656 61.140625 166.09375 C 60.742188 166.527344 60.746094 166.527344 61.234375 166.128906 C 61.75 165.703125 62.171875 165.9375 61.890625 166.496094 C 61.808594 166.652344 61.886719 166.628906 62.058594 166.4375 C 62.234375 166.246094 62.5 165.984375 62.652344 165.855469 Z M 64.550781 166.195312 C 64.550781 166.058594 64.449219 166.015625 64.320312 166.09375 C 64.195312 166.171875 64.089844 166.28125 64.089844 166.335938 C 64.089844 166.390625 64.195312 166.4375 64.320312 166.4375 C 64.449219 166.4375 64.550781 166.328125 64.550781 166.195312 Z M 63.332031 164.4375 C 63.109375 164.378906 62.796875 164.382812 62.640625 164.449219 C 62.484375 164.511719 62.667969 164.558594 63.050781 164.554688 C 63.429688 164.550781 63.558594 164.496094 63.332031 164.4375 Z M 65.136719 164.183594 C 65.066406 164.113281 64.878906 164.183594 64.722656 164.339844 C 64.496094 164.566406 64.523438 164.59375 64.851562 164.46875 C 65.078125 164.382812 65.207031 164.253906 65.136719 164.183594 Z M 67.789062 163.894531 C 67.789062 163.777344 67.703125 163.679688 67.597656 163.679688 C 67.492188 163.679688 67.40625 163.828125 67.40625 164.011719 C 67.40625 164.199219 67.492188 164.296875 67.597656 164.230469 C 67.703125 164.164062 67.789062 164.015625 67.789062 163.894531 Z M 66.863281 163.445312 C 66.726562 163.1875 66.691406 162.851562 66.785156 162.695312 C 66.890625 162.519531 66.808594 162.53125 66.558594 162.734375 C 66.183594 163.035156 66.183594 163.082031 66.546875 163.480469 C 67.054688 164.039062 67.175781 164.023438 66.863281 163.445312 Z M 65.691406 163.597656 C 65.636719 163.550781 65.28125 163.445312 64.898438 163.359375 C 64.390625 163.246094 64.300781 163.269531 64.550781 163.4375 C 64.863281 163.648438 65.921875 163.796875 65.691406 163.597656 Z M 63.628906 162.96875 C 63.9375 162.75 63.9375 162.734375 63.628906 162.824219 C 63.4375 162.882812 63.070312 162.820312 62.816406 162.691406 C 62.402344 162.480469 62.386719 162.496094 62.671875 162.835938 C 63.042969 163.28125 63.15625 163.296875 63.628906 162.96875 Z M 64.785156 162.652344 C 64.785156 162.4375 64.648438 162.363281 64.417969 162.453125 C 64.121094 162.566406 64.109375 162.632812 64.359375 162.789062 C 64.769531 163.046875 64.785156 163.042969 64.785156 162.652344 Z M 70.890625 162.527344 C 71.800781 162.527344 70.867188 162.023438 69.867188 161.972656 C 69.261719 161.945312 68.777344 161.777344 68.601562 161.539062 C 68.191406 160.976562 68.023438 161.058594 68.023438 161.816406 C 68.023438 162.367188 68.101562 162.464844 68.46875 162.371094 C 68.714844 162.304688 69.15625 162.417969 69.445312 162.617188 C 69.789062 162.859375 70.046875 162.90625 70.199219 162.757812 C 70.324219 162.632812 70.636719 162.527344 70.890625 162.527344 Z M 65.707031 162.527344 C 65.707031 162.402344 65.597656 162.300781 65.464844 162.300781 C 65.328125 162.300781 65.285156 162.402344 65.363281 162.527344 C 65.441406 162.65625 65.550781 162.757812 65.605469 162.757812 C 65.664062 162.757812 65.707031 162.65625 65.707031 162.527344 Z M 71.996094 160.304688 C 71.832031 160.238281 71.632812 160.246094 71.554688 160.320312 C 71.476562 160.398438 71.613281 160.453125 71.859375 160.441406 C 72.128906 160.429688 72.183594 160.375 71.996094 160.304688 Z M 78.128906 210.664062 C 77.882812 210.417969 78.199219 210.121094 78.703125 210.121094 C 79.101562 210.121094 79.132812 210.175781 78.894531 210.464844 C 78.582031 210.835938 78.363281 210.894531 78.128906 210.664062 Z M 53.335938 205.070312 C 52.699219 204.332031 52.136719 203.769531 52.085938 203.816406 C 52.035156 203.867188 51.746094 203.574219 51.441406 203.167969 C 50.882812 202.410156 50.101562 201.867188 49.5625 201.851562 C 49.394531 201.847656 49.320312 201.941406 49.394531 202.0625 C 49.476562 202.195312 49.253906 202.1875 48.839844 202.042969 C 48.296875 201.855469 47.984375 201.464844 47.414062 200.269531 C 46.246094 197.808594 46.230469 197.746094 46.765625 197.460938 C 47.039062 197.316406 47.1875 197.070312 47.113281 196.882812 C 47.042969 196.703125 47.089844 196.554688 47.210938 196.554688 C 47.335938 196.554688 47.4375 196.394531 47.4375 196.195312 C 47.4375 195.957031 47.609375 195.859375 47.957031 195.910156 C 48.316406 195.957031 48.476562 195.863281 48.480469 195.59375 C 48.480469 195.382812 48.558594 195.132812 48.652344 195.039062 C 48.746094 194.945312 48.824219 194.980469 48.824219 195.121094 C 48.824219 195.257812 49.136719 195.4375 49.519531 195.519531 C 49.898438 195.605469 50.210938 195.800781 50.210938 195.960938 C 50.210938 196.121094 50.496094 196.394531 50.847656 196.570312 C 51.199219 196.742188 51.542969 196.917969 51.613281 196.953125 C 51.679688 196.992188 51.695312 196.660156 51.644531 196.214844 C 51.527344 195.222656 51.964844 195.125 52.179688 196.09375 C 52.261719 196.476562 52.417969 196.785156 52.523438 196.785156 C 52.632812 196.785156 52.847656 197.171875 53.003906 197.648438 C 53.160156 198.121094 53.507812 198.734375 53.773438 199.003906 C 54.46875 199.714844 54.835938 200.191406 54.835938 200.378906 C 54.835938 200.46875 55 200.722656 55.203125 200.941406 C 55.6875 201.476562 55.804688 203.203125 55.390625 203.785156 C 55.214844 204.039062 55.070312 204.425781 55.070312 204.648438 C 55.070312 204.890625 54.832031 205.113281 54.480469 205.199219 C 53.898438 205.347656 53.894531 205.351562 54.363281 205.675781 C 54.828125 206 55.011719 206.457031 54.664062 206.425781 C 54.570312 206.417969 53.96875 205.808594 53.335938 205.070312 Z M 55.148438 201.488281 C 55.074219 201.292969 54.960938 201.183594 54.902344 201.242188 C 54.839844 201.304688 54.859375 201.464844 54.945312 201.597656 C 55.171875 201.964844 55.304688 201.894531 55.148438 201.488281 Z M 57.28125 206.003906 C 57.140625 205.78125 58.914062 204.835938 59.480469 204.828125 C 59.757812 204.824219 59.753906 204.789062 59.464844 204.601562 C 59.191406 204.425781 59.183594 204.378906 59.433594 204.375 C 59.664062 204.375 59.714844 204.179688 59.613281 203.683594 C 59.535156 203.292969 59.574219 202.992188 59.699219 202.992188 C 59.824219 202.992188 59.925781 203.097656 59.925781 203.222656 C 59.925781 203.347656 60.144531 203.667969 60.410156 203.933594 L 60.894531 204.414062 L 60.351562 204.792969 C 60.054688 205.003906 59.757812 205.175781 59.695312 205.175781 C 59.632812 205.175781 59.25 205.410156 58.851562 205.695312 C 58.082031 206.238281 57.496094 206.351562 57.28125 206.003906 Z M 59.511719 200.417969 C 59.359375 200.265625 59.234375 200.058594 59.234375 199.957031 C 59.234375 199.621094 59.582031 199.769531 59.871094 200.234375 C 60.1875 200.738281 59.953125 200.859375 59.511719 200.417969 Z M 95.894531 200.175781 C 95.988281 199.890625 96.15625 198.519531 96.273438 197.128906 C 96.398438 195.632812 96.632812 194.339844 96.84375 193.957031 C 97.148438 193.414062 97.164062 193.132812 96.933594 192.183594 C 96.78125 191.554688 96.730469 190.640625 96.820312 190.125 C 96.960938 189.289062 96.929688 189.199219 96.492188 189.199219 C 96.21875 189.199219 96.011719 189.050781 96.011719 188.855469 C 96.011719 188.417969 95.566406 188.421875 94.980469 188.863281 C 94.734375 189.046875 94.347656 189.144531 94.121094 189.070312 C 93.898438 189 93.511719 189.050781 93.269531 189.179688 C 92.6875 189.488281 91.691406 188.746094 91.238281 187.667969 C 91.0625 187.246094 90.785156 186.925781 90.628906 186.957031 C 90.425781 187 90.34375 186.578125 90.34375 185.484375 C 90.34375 184.644531 90.425781 184.003906 90.523438 184.066406 C 90.625 184.128906 90.683594 183.832031 90.660156 183.414062 C 90.632812 182.992188 90.808594 182.285156 91.050781 181.839844 C 91.296875 181.398438 91.496094 180.882812 91.496094 180.691406 C 91.5 180.503906 91.605469 180.363281 91.730469 180.378906 C 92.050781 180.421875 93.292969 179.523438 93.132812 179.363281 C 93.058594 179.292969 93.175781 179.046875 93.386719 178.8125 C 93.597656 178.582031 93.6875 178.394531 93.589844 178.394531 C 93.488281 178.394531 93.550781 178.210938 93.726562 177.992188 C 94.015625 177.625 94.007812 177.617188 93.640625 177.902344 C 93.417969 178.078125 93.222656 178.15625 93.207031 178.078125 C 93.191406 177.996094 93.160156 177.804688 93.144531 177.644531 C 93.125 177.488281 92.914062 177.390625 92.675781 177.433594 C 92.292969 177.5 92.261719 177.410156 92.414062 176.628906 C 92.503906 176.144531 92.574219 175.507812 92.5625 175.207031 C 92.53125 174.367188 92.742188 174.226562 93.480469 174.605469 C 94.113281 174.933594 94.160156 174.925781 94.160156 174.535156 C 94.160156 174.304688 93.898438 173.761719 93.582031 173.335938 C 92.894531 172.40625 92.890625 172.394531 93.40625 172.554688 C 93.773438 172.671875 93.777344 172.652344 93.441406 172.375 C 93.042969 172.042969 93.015625 171.980469 92.976562 171.207031 C 92.957031 170.820312 92.921875 170.789062 92.84375 171.09375 C 92.785156 171.316406 92.601562 171.496094 92.433594 171.496094 C 92.011719 171.496094 91.804688 170.578125 92.195312 170.429688 C 92.371094 170.363281 92.453125 170.160156 92.382812 169.980469 C 92.292969 169.742188 92.371094 169.695312 92.671875 169.808594 C 92.996094 169.933594 93.050781 169.878906 92.929688 169.570312 C 92.832031 169.320312 92.867188 169.226562 93.023438 169.324219 C 93.15625 169.40625 93.207031 169.625 93.136719 169.808594 C 93.0625 169.996094 93.261719 170.605469 93.578125 171.164062 C 93.890625 171.722656 94.09375 172.363281 94.03125 172.585938 C 93.964844 172.816406 94.03125 172.773438 94.179688 172.488281 C 94.402344 172.074219 94.359375 171.84375 93.929688 171.152344 C 93.644531 170.695312 93.457031 170.277344 93.511719 170.222656 C 93.648438 170.085938 95 172.011719 95.191406 172.617188 C 95.277344 172.886719 95.421875 173.105469 95.515625 173.105469 C 95.871094 173.105469 98.324219 178.53125 98.324219 179.316406 C 98.324219 179.519531 98.15625 179.449219 97.851562 179.125 C 97.429688 178.675781 96.933594 178.457031 96.933594 178.726562 C 96.933594 178.882812 97.894531 180.460938 97.992188 180.460938 C 98.039062 180.460938 98.011719 180.292969 97.933594 180.085938 C 97.8125 179.777344 97.863281 179.75 98.210938 179.945312 C 98.445312 180.074219 98.65625 180.375 98.683594 180.609375 C 98.707031 180.84375 98.792969 181.347656 98.875 181.726562 C 98.953125 182.105469 99.171875 183.476562 99.359375 184.769531 C 99.726562 187.3125 99.546875 190.589844 98.882812 193.5 C 98.703125 194.285156 98.554688 195.265625 98.554688 195.683594 C 98.550781 196.949219 98.101562 198.207031 97.601562 198.335938 C 97.347656 198.402344 96.886719 198.957031 96.574219 199.574219 C 95.980469 200.738281 95.601562 201.074219 95.894531 200.175781 Z M 97.441406 178.113281 C 97.273438 177.949219 97.167969 177.933594 97.167969 178.078125 C 97.167969 178.386719 97.441406 178.65625 97.59375 178.503906 C 97.660156 178.4375 97.589844 178.261719 97.441406 178.113281 Z M 96.832031 178.105469 C 96.636719 177.230469 95.847656 175.867188 95.527344 175.867188 C 95.105469 175.863281 94.519531 176.824219 94.671875 177.273438 C 94.726562 177.441406 94.972656 177.589844 95.21875 177.601562 C 96.421875 177.664062 96.703125 177.71875 96.675781 177.875 C 96.632812 178.140625 96.695312 178.394531 96.800781 178.394531 C 96.851562 178.394531 96.867188 178.265625 96.832031 178.105469 Z M 64.320312 199.179688 C 64.320312 198.980469 64.445312 198.859375 64.59375 198.90625 C 65.023438 199.050781 65.09375 199.542969 64.6875 199.542969 C 64.484375 199.542969 64.320312 199.382812 64.320312 199.179688 Z M 65.132812 198.859375 C 65.054688 198.730469 65.148438 198.625 65.347656 198.625 C 65.753906 198.625 65.8125 198.761719 65.492188 198.960938 C 65.375 199.03125 65.210938 198.988281 65.132812 198.859375 Z M 60.292969 198.246094 C 60.097656 197.746094 60.355469 197.511719 60.628906 197.941406 C 60.902344 198.371094 60.910156 198.625 60.644531 198.625 C 60.53125 198.625 60.371094 198.457031 60.292969 198.246094 Z M 58.308594 195.875 C 58.308594 195.75 58.152344 195.710938 57.960938 195.78125 C 57.539062 195.945312 57.5 195.554688 57.90625 195.222656 C 58.121094 195.042969 58.265625 195.125 58.460938 195.539062 C 58.605469 195.84375 58.632812 196.097656 58.515625 196.097656 C 58.402344 196.097656 58.308594 195.996094 58.308594 195.875 Z M 53.792969 195.578125 C 53.539062 195.441406 53.199219 195.136719 53.03125 194.90625 C 52.710938 194.460938 52.0625 194.332031 52.0625 194.714844 C 52.0625 194.84375 51.851562 194.945312 51.597656 194.945312 C 51.34375 194.945312 51.136719 194.84375 51.136719 194.714844 C 51.136719 194.589844 50.929688 194.488281 50.671875 194.488281 C 50.417969 194.488281 50.210938 194.382812 50.210938 194.257812 C 50.210938 194.128906 50.316406 194.027344 50.445312 194.027344 C 50.902344 194.027344 50.125 193.152344 49.339844 192.777344 C 48.8125 192.527344 48.589844 192.292969 48.679688 192.066406 C 48.753906 191.863281 48.675781 191.726562 48.476562 191.726562 C 48.277344 191.726562 48.195312 191.863281 48.277344 192.074219 C 48.375 192.324219 48.25 192.417969 47.820312 192.417969 C 47.496094 192.417969 47.167969 192.3125 47.089844 192.1875 C 47.011719 192.0625 47.160156 191.957031 47.421875 191.957031 C 47.683594 191.957031 47.910156 191.855469 47.925781 191.726562 C 47.941406 191.601562 47.96875 191.402344 47.984375 191.289062 C 48.03125 190.945312 48.359375 190.707031 48.359375 191.011719 C 48.359375 191.167969 48.453125 191.238281 48.566406 191.167969 C 48.679688 191.101562 48.898438 191.195312 49.058594 191.386719 C 49.214844 191.574219 49.257812 191.726562 49.152344 191.726562 C 49.046875 191.726562 49.082031 191.847656 49.230469 191.992188 C 49.433594 192.195312 49.578125 192.191406 49.835938 191.980469 C 50.109375 191.757812 50.398438 191.8125 51.304688 192.273438 C 51.929688 192.585938 52.574219 193.003906 52.742188 193.203125 C 52.90625 193.402344 53.332031 193.566406 53.679688 193.566406 C 54.324219 193.566406 54.960938 193.078125 54.679688 192.796875 C 54.597656 192.714844 54.644531 192.648438 54.785156 192.648438 C 55.277344 192.648438 55.320312 193.105469 54.871094 193.585938 C 54.566406 193.910156 54.261719 194.023438 53.953125 193.925781 C 53.140625 193.667969 53.09375 194.285156 53.867188 194.976562 C 54.625 195.648438 54.578125 196.007812 53.792969 195.578125 Z M 56.546875 194.90625 C 56.4375 194.730469 56.503906 194.6875 56.738281 194.773438 C 56.933594 194.847656 57.199219 194.804688 57.328125 194.679688 C 57.484375 194.523438 57.613281 194.527344 57.714844 194.695312 C 57.800781 194.835938 57.839844 194.953125 57.800781 194.964844 C 57.066406 195.140625 56.679688 195.121094 56.546875 194.90625 Z M 46.132812 194.222656 C 46.023438 194.046875 45.648438 193.722656 45.304688 193.503906 C 44.417969 192.945312 44.089844 192.277344 44.597656 192.082031 C 44.816406 192 44.917969 192.007812 44.824219 192.097656 C 44.589844 192.332031 45.363281 193.128906 45.652344 192.953125 C 45.785156 192.871094 45.816406 192.917969 45.726562 193.066406 C 45.628906 193.222656 45.796875 193.382812 46.152344 193.46875 C 46.789062 193.628906 46.84375 193.742188 46.535156 194.226562 C 46.363281 194.492188 46.300781 194.492188 46.132812 194.222656 Z M 46.882812 194.160156 C 46.953125 193.980469 47.167969 193.773438 47.363281 193.699219 C 47.617188 193.601562 47.679688 193.664062 47.578125 193.929688 C 47.5 194.128906 47.433594 194.335938 47.433594 194.390625 C 47.433594 194.445312 47.28125 194.488281 47.097656 194.488281 C 46.898438 194.488281 46.808594 194.351562 46.882812 194.160156 Z M 55.761719 194.027344 C 55.449219 193.449219 55.710938 193.449219 56.457031 194.027344 C 57.027344 194.472656 57.03125 194.476562 56.523438 194.480469 C 56.242188 194.484375 55.898438 194.28125 55.761719 194.027344 Z M 48.359375 193.925781 C 48.359375 193.871094 48.464844 193.761719 48.59375 193.683594 C 48.71875 193.605469 48.824219 193.648438 48.824219 193.785156 C 48.824219 193.917969 48.71875 194.027344 48.59375 194.027344 C 48.464844 194.027344 48.359375 193.980469 48.359375 193.925781 Z M 49.191406 193.597656 C 49.089844 193.4375 49.070312 193.246094 49.148438 193.167969 C 49.355469 192.964844 49.578125 193.265625 49.46875 193.597656 C 49.390625 193.832031 49.335938 193.832031 49.1875 193.597656 Z M 45.972656 192.726562 C 45.886719 192.640625 45.804688 192.097656 45.789062 191.515625 C 45.765625 190.628906 45.738281 190.570312 45.617188 191.140625 C 45.535156 191.511719 45.390625 191.796875 45.296875 191.773438 C 45.199219 191.746094 45.03125 191.726562 44.917969 191.726562 C 44.445312 191.726562 44.421875 190.15625 44.871094 189.050781 C 45.316406 187.964844 45.378906 187.980469 45.46875 189.222656 C 45.535156 190.105469 45.804688 190.40625 46.421875 190.285156 C 46.785156 190.21875 46.972656 190.289062 46.972656 190.496094 C 46.972656 190.667969 46.738281 190.816406 46.453125 190.824219 L 45.933594 190.835938 L 46.453125 191.046875 C 46.738281 191.160156 46.972656 191.386719 46.96875 191.546875 C 46.964844 191.773438 46.921875 191.769531 46.765625 191.53125 C 46.65625 191.359375 46.511719 191.3125 46.4375 191.425781 C 46.367188 191.542969 46.40625 191.785156 46.523438 191.96875 C 46.640625 192.152344 46.726562 192.457031 46.71875 192.648438 C 46.707031 192.917969 46.679688 192.925781 46.578125 192.679688 C 46.492188 192.457031 46.40625 192.441406 46.292969 192.625 C 46.203125 192.769531 46.0625 192.8125 45.972656 192.726562 Z M 68.984375 191.957031 C 69.101562 191.609375 69.472656 191.574219 69.582031 191.898438 C 69.636719 192.058594 69.507812 192.1875 69.292969 192.1875 C 69.082031 192.1875 68.945312 192.085938 68.984375 191.957031 Z M 49.535156 191.632812 C 49.527344 191.390625 49.582031 191.253906 49.65625 191.332031 C 49.734375 191.40625 49.742188 191.605469 49.675781 191.769531 C 49.601562 191.953125 49.546875 191.898438 49.535156 191.632812 Z M 43.835938 190.292969 C 43.570312 188.136719 43.566406 188.039062 43.742188 187.929688 C 43.832031 187.875 43.980469 188.472656 44.066406 189.261719 C 44.15625 190.046875 44.28125 190.925781 44.351562 191.210938 C 44.421875 191.496094 44.375 191.726562 44.246094 191.726562 C 44.117188 191.726562 43.933594 191.082031 43.835938 190.292969 Z M 47.417969 191.671875 C 47.246094 191.089844 47.25 190.464844 47.429688 190.15625 C 47.601562 189.863281 47.65625 190.003906 47.660156 190.75 C 47.664062 191.289062 47.617188 191.726562 47.550781 191.726562 C 47.488281 191.726562 47.429688 191.703125 47.417969 191.671875 Z M 57.84375 189.769531 C 57.84375 189.578125 57.585938 189.300781 57.265625 189.15625 C 56.761719 188.929688 56.464844 188.507812 56.808594 188.507812 C 57.019531 188.507812 57.957031 189.078125 58.128906 189.3125 C 58.378906 189.648438 58.34375 190.117188 58.078125 190.117188 C 57.949219 190.117188 57.84375 189.960938 57.84375 189.769531 Z M 46.28125 188.28125 C 46.113281 187.96875 46.109375 187.820312 46.273438 187.820312 C 46.402344 187.820312 46.511719 187.660156 46.511719 187.460938 C 46.511719 187.265625 46.613281 187.167969 46.742188 187.246094 C 47.039062 187.425781 47.046875 188.738281 46.75 188.738281 C 46.628906 188.738281 46.414062 188.53125 46.28125 188.28125 Z M 45.125 187.546875 C 45.128906 187.378906 45.230469 187.089844 45.355469 186.898438 C 45.535156 186.621094 45.578125 186.648438 45.582031 187.058594 C 45.585938 187.335938 45.480469 187.625 45.355469 187.703125 C 45.226562 187.78125 45.125 187.710938 45.125 187.546875 Z M 43.707031 186.84375 C 43.613281 184.546875 44.433594 179.289062 44.90625 179.121094 C 45.027344 179.078125 45.125 178.8125 45.125 178.527344 C 45.125 177.90625 46.199219 175.183594 46.613281 174.753906 C 46.859375 174.5 46.933594 174.511719 47.054688 174.824219 C 47.148438 175.0625 47.109375 175.140625 46.945312 175.042969 C 46.777344 174.941406 46.742188 175.046875 46.84375 175.359375 C 46.945312 175.671875 46.84375 175.96875 46.535156 176.25 C 46.050781 176.703125 45.585938 177.71875 45.585938 178.335938 C 45.585938 178.648438 45.640625 178.636719 45.925781 178.265625 C 46.113281 178.019531 46.269531 177.535156 46.273438 177.1875 C 46.277344 176.839844 46.382812 176.554688 46.511719 176.554688 C 46.929688 176.554688 46.753906 178.128906 46.222656 179.132812 C 45.777344 179.976562 45.691406 180.042969 45.628906 179.601562 C 45.585938 179.316406 45.46875 179.082031 45.367188 179.082031 C 44.914062 179.082031 44.691406 181.921875 45.125 182.1875 C 45.507812 182.421875 45.40625 183.289062 45.011719 183.140625 C 44.5 182.945312 44.265625 183.609375 44.246094 185.289062 C 44.21875 187.5625 44.214844 187.589844 43.964844 187.589844 C 43.839844 187.589844 43.722656 187.253906 43.707031 186.84375 Z M 45.871094 186.804688 C 45.941406 186.4375 45.882812 186.289062 45.695312 186.359375 C 45.332031 186.5 45.011719 184.621094 45.347656 184.289062 C 45.511719 184.121094 45.585938 184.253906 45.585938 184.714844 C 45.585938 185.121094 45.824219 185.628906 46.199219 186.015625 C 46.710938 186.546875 46.765625 186.710938 46.519531 187.007812 C 46.078125 187.535156 45.75 187.433594 45.871094 186.804688 Z M 73.066406 182.945312 C 73.28125 182.730469 73.40625 182.730469 73.621094 182.945312 C 73.835938 183.160156 73.773438 183.222656 73.34375 183.222656 C 72.910156 183.222656 72.847656 183.160156 73.066406 182.945312 Z M 74.5 182.976562 C 74.5 182.832031 74.648438 182.769531 74.828125 182.835938 C 75.007812 182.90625 75.214844 182.808594 75.289062 182.617188 C 75.367188 182.410156 75.535156 182.34375 75.710938 182.453125 C 75.871094 182.550781 76.226562 182.605469 76.5 182.570312 C 76.777344 182.535156 77.066406 182.613281 77.152344 182.746094 C 77.234375 182.882812 77.117188 182.996094 76.882812 183.003906 C 76.652344 183.011719 76.023438 183.070312 75.484375 183.132812 C 74.828125 183.207031 74.5 183.15625 74.5 182.976562 Z M 77.691406 182.945312 C 77.90625 182.730469 78.03125 182.730469 78.246094 182.945312 C 78.460938 183.160156 78.402344 183.222656 77.96875 183.222656 C 77.539062 183.222656 77.476562 183.160156 77.691406 182.945312 Z M 72.355469 181.707031 C 72 181.515625 71.59375 181.433594 71.453125 181.523438 C 71.292969 181.621094 71.253906 181.582031 71.355469 181.417969 C 71.460938 181.25 71.339844 181.152344 71.03125 181.152344 C 70.761719 181.152344 70.589844 181.234375 70.652344 181.332031 C 70.714844 181.433594 70.5625 181.511719 70.320312 181.511719 C 69.703125 181.511719 69.761719 181.195312 70.429688 180.890625 C 70.878906 180.6875 71.257812 180.742188 72.394531 181.179688 C 73.78125 181.714844 74.199219 182.082031 73.402344 182.0625 C 73.179688 182.058594 72.707031 181.898438 72.355469 181.707031 Z M 93.003906 178.636719 C 93.003906 178.503906 93.109375 178.394531 93.234375 178.394531 C 93.363281 178.394531 93.46875 178.4375 93.46875 178.496094 C 93.46875 178.550781 93.363281 178.660156 93.234375 178.738281 C 93.109375 178.816406 93.003906 178.769531 93.003906 178.636719 Z M 93.46875 174.382812 C 93.46875 174.328125 93.570312 174.21875 93.699219 174.140625 C 93.824219 174.0625 93.929688 174.109375 93.929688 174.242188 C 93.929688 174.375 93.824219 174.484375 93.699219 174.484375 C 93.570312 174.484375 93.46875 174.441406 93.46875 174.382812 Z M 47.667969 173.246094 C 47.667969 173.058594 47.773438 172.839844 47.898438 172.761719 C 48.027344 172.683594 48.132812 172.773438 48.132812 172.964844 C 48.132812 173.152344 48.027344 173.371094 47.898438 173.449219 C 47.773438 173.527344 47.667969 173.4375 47.667969 173.246094 Z M 48.59375 173.234375 C 48.59375 173.179688 48.699219 173.070312 48.824219 172.992188 C 48.953125 172.914062 49.054688 172.957031 49.054688 173.09375 C 49.054688 173.226562 48.953125 173.335938 48.824219 173.335938 C 48.699219 173.335938 48.59375 173.289062 48.59375 173.234375 Z M 49.980469 171.96875 C 49.980469 171.835938 50.085938 171.726562 50.210938 171.726562 C 50.339844 171.726562 50.445312 171.773438 50.445312 171.828125 C 50.445312 171.882812 50.339844 171.992188 50.210938 172.070312 C 50.085938 172.148438 49.980469 172.105469 49.980469 171.96875 Z M 50.324219 169.878906 C 50.246094 169.753906 50.058594 169.722656 49.90625 169.8125 C 49.753906 169.90625 49.769531 169.808594 49.953125 169.585938 C 50.28125 169.183594 51.027344 169.0625 51.226562 169.382812 C 51.289062 169.480469 51.144531 169.6875 50.902344 169.835938 C 50.621094 170.011719 50.414062 170.027344 50.324219 169.878906 Z M 80.90625 166.640625 C 80.675781 166.507812 80.332031 166.460938 80.140625 166.53125 C 79.945312 166.605469 79.859375 166.5625 79.9375 166.4375 C 80.015625 166.3125 79.949219 166.207031 79.796875 166.207031 C 79.28125 166.207031 79.804688 165.902344 80.433594 165.835938 C 81.152344 165.761719 82.441406 166.359375 82.242188 166.679688 C 82.066406 166.964844 81.433594 166.949219 80.90625 166.640625 Z M 80.90625 166.640625 " clip-rule="nonzero"/></clipPath><radialGradient gradientTransform="matrix(1.006068, 0, 0, 0.993932, -5.529536, 133.101917)" gradientUnits="userSpaceOnUse" r="64.592546" cx="56.926955" id="a87e1dcaf7" cy="38.224194" fx="56.926955" fy="38.224194"><stop stop-opacity="1" stop-color="rgb(18.399048%, 48.599243%, 44.699097%)" offset="0"/><stop stop-opacity="1" stop-color="rgb(18.399048%, 48.599243%, 44.699097%)" offset="1"/></radialGradient></defs><rect x="-37.5" width="450" fill="#ffffff" y="-37.499999" height="449.999989" fill-opacity="1"/><rect x="-37.5" width="450" fill="#ffffff" y="-37.499999" height="449.999989" fill-opacity="1"/><rect x="-37.5" width="450" fill="#ffffff" y="-37.499999" height="449.999989" fill-opacity="1"/><path stroke-linecap="butt" transform="matrix(0.000000000000000046, -0.753689, 0.75, 0.000000000000000046, 116.813735, 218.472641)" fill="none" stroke-linejoin="miter" d="M -0.000020428 1.498353 L 82.598918 1.498353 " stroke="#2f7c72" stroke-width="3" stroke-opacity="1" stroke-miterlimit="4"/><g clip-path="url(#b8d1624ec3)"><g clip-path="url(#2d1e223d37)"><path fill="url(#a87e1dcaf7)" d="M 43.566406 159.683594 L 43.566406 215.179688 L 99.726562 215.179688 L 99.726562 159.683594 Z M 43.566406 159.683594 " fill-rule="nonzero"/></g></g><g fill="#2f7c72" fill-opacity="1"><g transform="translate(136.314824, 197.624987)"><g><path d="M 0.203125 -16.328125 L 0.203125 -20.421875 L 14.546875 -20.421875 L 14.546875 -16.328125 L 9.703125 -16.328125 L 9.703125 0 L 5.046875 0 L 5.046875 -16.328125 Z M 0.203125 -16.328125 "/></g></g></g><g fill="#2f7c72" fill-opacity="1"><g transform="translate(151.065822, 197.624987)"><g><path d="M 1.484375 -20.421875 L 8.78125 -20.421875 C 10.75 -20.421875 12.347656 -19.894531 13.578125 -18.84375 C 14.816406 -17.800781 15.4375 -16.304688 15.4375 -14.359375 C 15.4375 -12.859375 15.0625 -11.597656 14.3125 -10.578125 C 13.5625 -9.566406 12.546875 -8.851562 11.265625 -8.4375 L 18.296875 0 L 12.375 0 L 6.140625 -8.0625 L 6.140625 0 L 1.484375 0 Z M 6.140625 -11.359375 L 6.6875 -11.359375 C 7.113281 -11.359375 7.472656 -11.363281 7.765625 -11.375 C 8.066406 -11.394531 8.40625 -11.453125 8.78125 -11.546875 C 9.164062 -11.648438 9.472656 -11.789062 9.703125 -11.96875 C 9.929688 -12.15625 10.128906 -12.421875 10.296875 -12.765625 C 10.460938 -13.117188 10.546875 -13.539062 10.546875 -14.03125 C 10.546875 -14.53125 10.460938 -14.953125 10.296875 -15.296875 C 10.128906 -15.640625 9.929688 -15.898438 9.703125 -16.078125 C 9.472656 -16.265625 9.164062 -16.40625 8.78125 -16.5 C 8.40625 -16.601562 8.066406 -16.660156 7.765625 -16.671875 C 7.472656 -16.691406 7.113281 -16.703125 6.6875 -16.703125 L 6.140625 -16.703125 Z M 6.140625 -11.359375 "/></g></g></g><g fill="#2f7c72" fill-opacity="1"><g transform="translate(168.786814, 197.624987)"><g><path d="M 11.859375 -20.421875 L 20.09375 0 L 15.09375 0 L 13.59375 -4.078125 L 5.8125 -4.078125 L 4.3125 0 L -0.6875 0 L 7.546875 -20.421875 Z M 12 -8.171875 L 9.734375 -14.109375 L 9.671875 -14.109375 L 7.40625 -8.171875 Z M 12 -8.171875 "/></g></g></g><g fill="#2f7c72" fill-opacity="1"><g transform="translate(188.190808, 197.624987)"><g><path d="M 1.484375 -20.421875 L 7.40625 -20.421875 C 10.238281 -20.421875 12.660156 -19.453125 14.671875 -17.515625 C 16.691406 -15.578125 17.703125 -13.144531 17.703125 -10.21875 C 17.703125 -7.28125 16.695312 -4.84375 14.6875 -2.90625 C 12.6875 -0.96875 10.257812 0 7.40625 0 L 1.484375 0 Z M 6.140625 -4.15625 L 6.859375 -4.15625 C 8.554688 -4.15625 9.941406 -4.726562 11.015625 -5.875 C 12.097656 -7.019531 12.648438 -8.460938 12.671875 -10.203125 C 12.671875 -11.929688 12.128906 -13.375 11.046875 -14.53125 C 9.972656 -15.6875 8.578125 -16.265625 6.859375 -16.265625 L 6.140625 -16.265625 Z M 6.140625 -4.15625 "/></g></g></g><g fill="#2f7c72" fill-opacity="1"><g transform="translate(206.456299, 197.624987)"><g><path d="M 6.140625 -20.421875 L 6.140625 0 L 1.484375 0 L 1.484375 -20.421875 Z M 6.140625 -20.421875 "/></g></g></g><g fill="#2f7c72" fill-opacity="1"><g transform="translate(214.079299, 197.624987)"><g><path d="M 12.34375 -4.203125 C 13.0625 -4.203125 13.753906 -4.304688 14.421875 -4.515625 C 15.085938 -4.734375 15.578125 -4.941406 15.890625 -5.140625 L 16.359375 -5.46875 L 18.34375 -1.515625 C 18.269531 -1.460938 18.175781 -1.394531 18.0625 -1.3125 C 17.945312 -1.226562 17.675781 -1.070312 17.25 -0.84375 C 16.832031 -0.625 16.382812 -0.429688 15.90625 -0.265625 C 15.4375 -0.109375 14.8125 0.0351562 14.03125 0.171875 C 13.257812 0.304688 12.457031 0.375 11.625 0.375 C 9.726562 0.375 7.929688 -0.0859375 6.234375 -1.015625 C 4.535156 -1.953125 3.164062 -3.238281 2.125 -4.875 C 1.082031 -6.507812 0.5625 -8.273438 0.5625 -10.171875 C 0.5625 -11.609375 0.867188 -12.984375 1.484375 -14.296875 C 2.097656 -15.617188 2.910156 -16.75 3.921875 -17.6875 C 4.929688 -18.632812 6.113281 -19.390625 7.46875 -19.953125 C 8.820312 -20.515625 10.207031 -20.796875 11.625 -20.796875 C 12.945312 -20.796875 14.164062 -20.632812 15.28125 -20.3125 C 16.394531 -20 17.179688 -19.6875 17.640625 -19.375 L 18.34375 -18.90625 L 16.359375 -14.953125 C 16.242188 -15.046875 16.070312 -15.160156 15.84375 -15.296875 C 15.613281 -15.441406 15.148438 -15.628906 14.453125 -15.859375 C 13.765625 -16.097656 13.0625 -16.21875 12.34375 -16.21875 C 11.226562 -16.21875 10.222656 -16.035156 9.328125 -15.671875 C 8.441406 -15.304688 7.738281 -14.828125 7.21875 -14.234375 C 6.695312 -13.640625 6.300781 -13 6.03125 -12.3125 C 5.757812 -11.625 5.625 -10.925781 5.625 -10.21875 C 5.625 -8.664062 6.203125 -7.273438 7.359375 -6.046875 C 8.523438 -4.816406 10.1875 -4.203125 12.34375 -4.203125 Z M 12.34375 -4.203125 "/></g></g></g><g fill="#2f7c72" fill-opacity="1"><g transform="translate(232.716047, 197.624987)"><g><path d="M 0.5625 -10.21875 C 0.5625 -13.175781 1.566406 -15.675781 3.578125 -17.71875 C 5.597656 -19.769531 8.023438 -20.796875 10.859375 -20.796875 C 13.710938 -20.796875 16.140625 -19.773438 18.140625 -17.734375 C 20.140625 -15.691406 21.140625 -13.1875 21.140625 -10.21875 C 21.140625 -7.226562 20.15625 -4.710938 18.1875 -2.671875 C 16.226562 -0.640625 13.785156 0.375 10.859375 0.375 C 7.878906 0.375 5.414062 -0.632812 3.46875 -2.65625 C 1.53125 -4.675781 0.5625 -7.195312 0.5625 -10.21875 Z M 5.59375 -10.21875 C 5.59375 -9.144531 5.753906 -8.164062 6.078125 -7.28125 C 6.410156 -6.40625 6.988281 -5.660156 7.8125 -5.046875 C 8.644531 -4.441406 9.660156 -4.140625 10.859375 -4.140625 C 12.597656 -4.140625 13.90625 -4.734375 14.78125 -5.921875 C 15.664062 -7.109375 16.109375 -8.539062 16.109375 -10.21875 C 16.109375 -11.882812 15.660156 -13.316406 14.765625 -14.515625 C 13.867188 -15.710938 12.566406 -16.3125 10.859375 -16.3125 C 9.179688 -16.3125 7.882812 -15.710938 6.96875 -14.515625 C 6.050781 -13.316406 5.59375 -11.882812 5.59375 -10.21875 Z M 5.59375 -10.21875 "/></g></g></g><g fill="#2f7c72" fill-opacity="1"><g transform="translate(254.421791, 197.624987)"><g><path d="M 1.484375 -20.421875 L 8.78125 -20.421875 C 10.75 -20.421875 12.347656 -19.894531 13.578125 -18.84375 C 14.816406 -17.800781 15.4375 -16.304688 15.4375 -14.359375 C 15.4375 -12.859375 15.0625 -11.597656 14.3125 -10.578125 C 13.5625 -9.566406 12.546875 -8.851562 11.265625 -8.4375 L 18.296875 0 L 12.375 0 L 6.140625 -8.0625 L 6.140625 0 L 1.484375 0 Z M 6.140625 -11.359375 L 6.6875 -11.359375 C 7.113281 -11.359375 7.472656 -11.363281 7.765625 -11.375 C 8.066406 -11.394531 8.40625 -11.453125 8.78125 -11.546875 C 9.164062 -11.648438 9.472656 -11.789062 9.703125 -11.96875 C 9.929688 -12.15625 10.128906 -12.421875 10.296875 -12.765625 C 10.460938 -13.117188 10.546875 -13.539062 10.546875 -14.03125 C 10.546875 -14.53125 10.460938 -14.953125 10.296875 -15.296875 C 10.128906 -15.640625 9.929688 -15.898438 9.703125 -16.078125 C 9.472656 -16.265625 9.164062 -16.40625 8.78125 -16.5 C 8.40625 -16.601562 8.066406 -16.660156 7.765625 -16.671875 C 7.472656 -16.691406 7.113281 -16.703125 6.6875 -16.703125 L 6.140625 -16.703125 Z M 6.140625 -11.359375 "/></g></g></g><g fill="#2f7c72" fill-opacity="1"><g transform="translate(272.142784, 197.624987)"><g><path d="M 13.171875 -20.421875 L 13.171875 -16.328125 L 6.140625 -16.328125 L 6.140625 -12.28125 L 12.875 -12.28125 L 12.875 -8.1875 L 6.140625 -8.1875 L 6.140625 -4.078125 L 13.171875 -4.078125 L 13.171875 0 L 1.484375 0 L 1.484375 -20.421875 Z M 13.171875 -20.421875 "/></g></g></g></svg>